# xmcd
# 
# Track frame offsets:
#     150
#     18658
#     32140
#     51104
#     67741
#     88812
#     109052
#     126837
#     143477
#     164786
# 
# Disc length: 2423
# 
# Revision: 2
# Processed by: cddbd v1.5.2PL0 Copyright (c) Steve Scherf et al.
# Submitted via: fre:ac v1.0.17
# 
DISCID=8709750a
DTITLE=Pariisin kevät - Kaikki On Satua
DYEAR=2012
DGENRE=Blues
TTITLE0=Olen Kuullut Merestä
TTITLE1=Saari
TTITLE2=Ehkä Kaikki Palaa Itsestään Ennalleen
TTITLE3=Lopeta!
TTITLE4=On Aika Juosta
TTITLE5=Sytytä Valo
TTITLE6=Kesäyö
TTITLE7=Vanginvartijan Uni
TTITLE8=Kevät
TTITLE9=Häikäisee
EXTD=
EXTT0=
EXTT1=
EXTT2=
EXTT3=
EXTT4=
EXTT5=
EXTT6=
EXTT7=
EXTT8=
EXTT9=
PLAYORDER=
